<?xml version="1.0" encoding="iso-8859-1"?>
<!-- Generator: Adobe Illustrator 19.0.0, SVG Export Plug-In . SVG Version: 6.00 Build 0)  -->
<svg version="1.1" id="Capa_1" xmlns="http://www.w3.org/2000/svg" xmlns:xlink="http://www.w3.org/1999/xlink" x="0px" y="0px"
	 viewBox="0 0 512 512" style="enable-background:new 0 0 512 512;" xml:space="preserve">
<g>
	<g>
		<g>
			<path d="M496,16H16C7.163,16,0,23.163,0,32v352c0,8.837,7.163,16,16,16h160v80c0,8.837,7.163,16,16,16
				c4.197-0.018,8.22-1.684,11.2-4.64L294.56,400H496c8.837,0,16-7.163,16-16V32C512,23.163,504.837,16,496,16z M480,368H288
				c-4.276,0.018-8.367,1.746-11.36,4.8L208,441.44V384c0-8.837-7.163-16-16-16H32V48h448V368z"/>
			<path d="M176,288h160c17.673,0,32-14.327,32-32v-16h-32v16H176v-16h-32v16C144,273.673,158.327,288,176,288z"/>
			<rect x="192" y="144" width="32" height="32"/>
			<rect x="288" y="144" width="32" height="32"/>
		</g>
	</g>
</g>
<g>
</g>
<g>
</g>
<g>
</g>
<g>
</g>
<g>
</g>
<g>
</g>
<g>
</g>
<g>
</g>
<g>
</g>
<g>
</g>
<g>
</g>
<g>
</g>
<g>
</g>
<g>
</g>
<g>
</g>
</svg>
