<svg id="Capa_1" enable-background="new 0 0 511 511" height="512" viewBox="0 0 511 511" width="512" xmlns="http://www.w3.org/2000/svg"><g><g id="Flat_8_"><path d="m7.5 473.5h496v30h-496z" fill="#ebfdc0"/><path d="m490.5 473.5h-470v-50l178.668-22.809c29.885-3.815 56.332 19.47 56.332 49.598v23.211-23.211c0-30.127 26.447-53.413 56.332-49.598l178.668 22.809z" fill="#fff"/><path d="m255.5 450.289c0-2.308-.173-4.57-.473-6.789h-234.527v30h470v-30h-234.527c-.3 2.219-.473 4.48-.473 6.789z" fill="#e4e8ed"/><path d="m255.5 363.5-134.878-135.402c-33.588-33.719-33.483-88.283.237-121.871 33.716-33.588 88.282-33.483 121.87.236l12.77 12.82 12.77-12.82c33.587-33.719 88.153-33.825 121.87-.236 33.72 33.588 33.825 88.152.237 121.871z" fill="#f88fa4"/><path d="m390.378 194.098-134.878 135.402-134.878-135.402c-12.417-12.465-20.215-27.781-23.427-43.83-5.464 27.26 2.333 56.655 23.427 77.83l134.878 135.402 134.878-135.402c21.094-21.176 28.89-50.571 23.427-77.83-3.212 16.049-11.011 31.365-23.427 43.83z" fill="#f05475"/><g fill="#ebfdc0"><path d="m139.5 308.5h-30v-30h-40v30h-30v40h30v30h40v-30h30z"/><path d="m503.5 37.5h-30v-30h-40v30h-30v40h30v30h40v-30h30z"/></g></g><g fill="#fff"><path d="m157.5 106h15v15h-15z"/><path d="m127.5 130h15v15h-15z"/></g><g id="Outline_8_"><path d="m15 481h311.5v-15h-63.5v-15.711c0-23.438 19.023-42.507 42.407-42.507 1.813 0 3.655.118 5.475.35l23.413 2.989 1.9-14.879-23.414-2.989c-2.448-.312-4.929-.47-7.374-.47-21.351 0-40.018 11.738-49.907 29.109-9.89-17.371-28.557-29.109-49.908-29.109-2.445 0-4.927.158-7.374.471l-185.218 23.642v49.104h-13v45h58.5v-15h-43.5zm13-50.896 172.117-21.973c1.819-.232 3.661-.35 5.475-.35 23.384 0 42.408 19.069 42.408 42.507v15.712h-220z"/><path d="m498 416.896-146.925-18.756-1.9 14.879 133.825 17.085v35.896h-141.5v15h154.5v15h-422.5v15h437.5v-45h-13z"/><path d="m117 386v-30h30v-55h-30v-30h-55v30h-30v55h30v30zm-70-45v-25h30v-30h25v30h30v25h-30v30h-25v-30z"/><path d="m481 30v-30h-55v30h-30v55h30v30h55v-30h30v-55zm15 40h-30v30h-25v-30h-30v-25h30v-30h25v30h30z"/><path d="m20.5 219h15v15h-15z"/><path d="m475.5 219h15v15h-15z"/><path d="m109.078 197.612c-4.024-9.643-6.064-19.854-6.064-30.35 0-21.07 8.218-40.859 23.139-55.722 14.847-14.79 34.565-22.936 55.522-22.936 21.074 0 40.87 8.222 55.741 23.151l18.084 18.155 18.084-18.155c14.872-14.93 34.667-23.152 55.738-23.152 2.606 0 5.244.131 7.84.389l1.484-14.927c-3.088-.307-6.225-.462-9.324-.462-25.089 0-48.658 9.79-66.365 27.566l-7.457 7.486-7.457-7.486c-17.706-17.776-41.276-27.565-66.368-27.565-24.953 0-48.431 9.698-66.108 27.308-17.768 17.698-27.553 41.261-27.553 66.35 0 12.489 2.43 24.644 7.221 36.126z"/><path d="m407.986 167.263c0 10.494-2.04 20.705-6.064 30.349l13.844 5.776c4.791-11.484 7.221-23.638 7.221-36.125 0-25.088-9.785-48.651-27.553-66.35-11.346-11.303-25.45-19.546-40.788-23.837l-4.041 14.445c12.87 3.601 24.712 10.523 34.243 20.019 14.921 14.863 23.138 34.652 23.138 55.723z"/><path d="m371.384 257.793-10.627-10.586-105.257 105.666-105.257-105.666-10.627 10.586 115.884 116.334z"/><path d="m196.134 208.984 40.533 99.2 33.172-113.177 25.94 80.504 31.449-41.511h133.272v-15h-140.728l-18.551 24.489-32.06-99.496-34.828 118.823-35.467-86.8-26.549 42.984h-121.817v15h130.183z"/></g></g></svg>