<svg version="1.1" id="Capa_1" xmlns="http://www.w3.org/2000/svg" x="0" y="0" viewBox="0 0 512 512" xml:space="preserve"><path d="M496 16H16C7.163 16 0 23.163 0 32v352c0 8.837 7.163 16 16 16h160v80c0 8.837 7.163 16 16 16a16.001 16.001 0 0011.2-4.64L294.56 400H496c8.837 0 16-7.163 16-16V32c0-8.837-7.163-16-16-16zm-16 352H288a16 16 0 00-11.36 4.8L208 441.44V384c0-8.837-7.163-16-16-16H32V48h448v320z"/><path d="M176 288h160c17.673 0 32-14.327 32-32v-16h-32v16H176v-16h-32v16c0 17.673 14.327 32 32 32zm16-144h32v32h-32zm96 0h32v32h-32z"/></svg>