<svg id="Capa_1" height="512" viewBox="0 0 511 511" width="512" xmlns="http://www.w3.org/2000/svg"><g id="Flat_8_"><path d="M7.5 473.5h496v30H7.5z" fill="#ebfdc0"/><path d="M490.5 473.5h-470v-50l178.668-22.809c29.885-3.815 56.332 19.47 56.332 49.598V473.5v-23.211c0-30.127 26.447-53.413 56.332-49.598L490.5 423.5z" fill="#fff"/><path d="M255.5 450.289c0-2.308-.173-4.57-.473-6.789H20.5v30h470v-30H255.973c-.3 2.219-.473 4.48-.473 6.789z" fill="#e4e8ed"/><path d="M255.5 363.5L120.622 228.098c-33.588-33.719-33.483-88.283.237-121.871 33.716-33.588 88.282-33.483 121.87.236l12.77 12.82 12.77-12.82c33.587-33.719 88.153-33.825 121.87-.236 33.72 33.588 33.825 88.152.237 121.871z" fill="#f88fa4"/><path d="M390.378 194.098L255.5 329.5 120.622 194.098c-12.417-12.465-20.215-27.781-23.427-43.83-5.464 27.26 2.333 56.655 23.427 77.83L255.5 363.5l134.878-135.402c21.094-21.176 28.89-50.571 23.427-77.83-3.212 16.049-11.011 31.365-23.427 43.83z" fill="#f05475"/><path d="M139.5 308.5h-30v-30h-40v30h-30v40h30v30h40v-30h30zm364-271h-30v-30h-40v30h-30v40h30v30h40v-30h30z" fill="#ebfdc0"/></g><path d="M157.5 106h15v15h-15zm-30 24h15v15h-15z" fill="#fff"/><g id="Outline_8_"><path d="M15 481h311.5v-15H263v-15.711c0-23.438 19.023-42.507 42.407-42.507 1.813 0 3.655.118 5.475.35l23.413 2.989 1.9-14.879-23.414-2.989a58.542 58.542 0 00-7.374-.47c-21.351 0-40.018 11.738-49.907 29.109-9.89-17.371-28.557-29.109-49.908-29.109-2.445 0-4.927.158-7.374.471L13 416.896V466H0v45h58.5v-15H15zm13-50.896l172.117-21.973a43.436 43.436 0 015.475-.35c23.384 0 42.408 19.069 42.408 42.507V466H28z"/><path d="M498 416.896L351.075 398.14l-1.9 14.879L483 430.104V466H341.5v15H496v15H73.5v15H511v-45h-13zM117 386v-30h30v-55h-30v-30H62v30H32v55h30v30zm-70-45v-25h30v-30h25v30h30v25h-30v30H77v-30zM481 30V0h-55v30h-30v55h30v30h55V85h30V30zm15 40h-30v30h-25V70h-30V45h30V15h25v30h30zM20.5 219h15v15h-15zm455 0h15v15h-15zm-366.422-21.388c-4.024-9.643-6.064-19.854-6.064-30.35 0-21.07 8.218-40.859 23.139-55.722C141 96.75 160.718 88.604 181.675 88.604c21.074 0 40.87 8.222 55.741 23.151L255.5 129.91l18.084-18.155c14.872-14.93 34.667-23.152 55.738-23.152 2.606 0 5.244.131 7.84.389l1.484-14.927a94.632 94.632 0 00-9.324-.462c-25.089 0-48.658 9.79-66.365 27.566l-7.457 7.486-7.457-7.486c-17.706-17.776-41.276-27.565-66.368-27.565-24.953 0-48.431 9.698-66.108 27.308-17.768 17.698-27.553 41.261-27.553 66.35 0 12.489 2.43 24.644 7.221 36.126zm298.908-30.349c0 10.494-2.04 20.705-6.064 30.349l13.844 5.776c4.791-11.484 7.221-23.638 7.221-36.125 0-25.088-9.785-48.651-27.553-66.35-11.346-11.303-25.45-19.546-40.788-23.837l-4.041 14.445c12.87 3.601 24.712 10.523 34.243 20.019 14.921 14.863 23.138 34.652 23.138 55.723zm-36.602 90.53l-10.627-10.586L255.5 352.873 150.243 247.207l-10.627 10.586L255.5 374.127z"/><path d="M196.134 208.984l40.533 99.2 33.172-113.177 25.94 80.504L327.228 234H460.5v-15H319.772l-18.551 24.489-32.06-99.496-34.828 118.823-35.467-86.8L172.317 219H50.5v15h130.183z"/></g></svg>