<svg version="1.1" id="Layer_1" xmlns="http://www.w3.org/2000/svg" x="0" y="0" viewBox="0 0 342 352" xml:space="preserve"><style>.st5{fill:#fff}</style><g id="Tablet"><g id="LOC-Diagram" transform="translate(-7)"><linearGradient id="Oval-5_1_" gradientUnits="userSpaceOnUse" x1="172.124" y1="181.407" x2="172.861" y2="180.441" gradientTransform="matrix(201.1504 0 0 -264.4572 -34509.012 48043.305)"><stop offset="0" stop-color="#ff6c02"/><stop offset="1" stop-color="#17ccbd"/></linearGradient><path id="Oval-5" d="M177.9 5.5C145 33 124 74.3 124 120.5c0 82.6 66.9 149.5 149.5 149.5 18.2 0 35.6-3.2 51.7-9.2" opacity=".5" fill="none" stroke="url(#Oval-5_1_)"/><linearGradient id="Oval-3_1_" gradientUnits="userSpaceOnUse" x1="171.704" y1="182.425" x2="172.704" y2="181.601" gradientTransform="matrix(148.7798 0 0 -104.0111 -25395.908 19003)"><stop offset="0" stop-color="#ff6c02"/><stop offset="1" stop-color="#ffe902"/></linearGradient><path id="Oval-3" d="M177.7 6c-.5 3.8-.7 7.6-.7 11.5 0 51.1 41.4 92.5 92.5 92.5 21.2 0 40.7-7.1 56.3-19.1" opacity=".25" fill="none" stroke="url(#Oval-3_1_)"/><linearGradient id="Oval-6_1_" gradientUnits="userSpaceOnUse" x1="173.592" y1="181.679" x2="172.592" y2="180.833" gradientTransform="matrix(296.3691 0 0 -199.0045 -51076.23 36281.816)"><stop offset="0" stop-color="#ffe902"/><stop offset="1" stop-color="#179ecc"/></linearGradient><path id="Oval-6" d="M29.6 260.8C59.3 279.3 94.4 290 132 290c107.1 0 194-86.9 194-194 0-1.7 0-3.3-.1-5" opacity=".25" fill="none" stroke="url(#Oval-6_1_)"/><g id="Group" transform="translate(8 6)"><linearGradient id="Oval-Copy_1_" gradientUnits="userSpaceOnUse" x1="165.024" y1="175.503" x2="165.024" y2="174.503" gradientTransform="matrix(170 0 0 -340 -27714 59671)"><stop offset="0" stop-color="#ff6c02"/><stop offset=".266" stop-color="#ffe902"/><stop offset=".744" stop-color="#17ccbd"/><stop offset="1" stop-color="#17bdcc"/></linearGradient><path id="Oval-Copy" d="M170 340c93.9 0 170-76.1 170-170S263.9 0 170 0" fill="none" stroke="url(#Oval-Copy_1_)" stroke-width="2"/><linearGradient id="Oval-Copy-2_1_" gradientUnits="userSpaceOnUse" x1="166.976" y1="175.503" x2="166.976" y2="174.503" gradientTransform="matrix(-170 0 0 -340 28386.672 59671)"><stop offset="0" stop-color="#ff6c02"/><stop offset=".261" stop-color="#1781cc"/><stop offset=".744" stop-color="#179ecc"/><stop offset="1" stop-color="#17bdcc"/></linearGradient><path id="Oval-Copy-2" d="M170.7 340C76.8 340 .7 263.9.7 170S76.8 0 170.7 0" fill="none" stroke="url(#Oval-Copy-2_1_)" stroke-width="2"/></g><path id="Rectangle-4" class="st5" d="M1 110h60v21H1z"/><path id="Rectangle-4_1_" class="st5" d="M141 26h60v21h-60z"/><path id="Rectangle-4_2_" class="st5" d="M297 110h60v21h-60z"/><path id="Rectangle-4_3_" class="st5" d="M271 279h60v21h-60z"/><path id="Rectangle-4_4_" class="st5" d="M8 279h57v21H8z"/><circle id="Oval-4" cx="177.9" cy="6.5" r="8.5" fill="#ff6c02" stroke="#fff" stroke-width="4"/><circle id="Oval-4_1_" cx="325.2" cy="91.5" r="8.5" fill="#ffe902" stroke="#fff" stroke-width="4"/><circle id="Oval-4_2_" cx="31.5" cy="91.5" r="8.5" fill="#1781cc" stroke="#fff" stroke-width="4"/><circle id="Oval-4_3_" cx="177.9" cy="345.4" r="8.5" fill="#17bdcc" stroke="#fff" stroke-width="4"/><circle id="Oval-4_4_" cx="324.2" cy="260.6" r="8.5" fill="#17ccbd" stroke="#fff" stroke-width="4"/><circle id="Oval-4_5_" cx="30.6" cy="260.6" r="8.5" fill="#179ecc" stroke="#fff" stroke-width="4"/></g></g></svg>