<svg xmlns="http://www.w3.org/2000/svg" width="512" height="512" viewBox="0 0 64 64"><path xmlns="http://www.w3.org/2000/svg" d="M17.614 33.858l-3.334 1.319a2.031 2.031 0 01-1.568-.037 1.95 1.95 0 01-1.045-1.121 22.061 22.061 0 01.02-15.093 2.012 2.012 0 012.505-1.195l4.325 1.431 5.439-12.894a9.228 9.228 0 00-5.516-1.629 8.575 8.575 0 00-5.618 1.8c-.1.087-.443.43-.518.517A27.843 27.843 0 0012.263 46c.116.131.459.474.548.551a5.823 5.823 0 003.152 1.313l.023 2.612-2.541 1.694a1 1 0 00.312 1.8l1.962.49L13.4 56.2a1 1 0 00.357 1.77l1.807.452-1.119.746A1 1 0 0014 60v1a1 1 0 002 0v-.465l2.555-1.7a1 1 0 00-.312-1.8l-1.962-.49L18.6 54.8a1 1 0 00-.357-1.77l-1.807-.452 1.119-.746a1 1 0 00.445-.857l-.036-3.065a11.186 11.186 0 005.943-2.129zM46 22v-5h-6v5a2 2 0 01-2 2h-5v6h5a2 2 0 012 2v5h6v-5a2 2 0 012-2h5v-6h-5a2 2 0 01-2-2z" fill="#fff" data-original="#000000"/><path xmlns="http://www.w3.org/2000/svg" d="M43 10a17 17 0 1017 17 17.019 17.019 0 00-17-17zm12 20a2 2 0 01-2 2h-5v5a2 2 0 01-2 2h-6a2 2 0 01-2-2v-5h-5a2 2 0 01-2-2v-6a2 2 0 012-2h5v-5a2 2 0 012-2h6a2 2 0 012 2v5h5a2 2 0 012 2z" fill="#fff" data-original="#000000"/></svg>