<svg xmlns="http://www.w3.org/2000/svg" width="512" height="512" viewBox="0 0 64 64"><path xmlns="http://www.w3.org/2000/svg" d="M31 19h2v-4h4v-2h-4V9h-2v4h-4v2h4zM4 42h9V11H7c-3 0-3 1.505-3 2z" fill="#fff" data-original="#000000"/><circle xmlns="http://www.w3.org/2000/svg" cx="32" cy="47" r="1" fill="#fff" data-original="#000000"/><path xmlns="http://www.w3.org/2000/svg" d="M29 47a3 3 0 013-3H4v3a3 3 0 003 3h25a3 3 0 01-3-3zm31-3H32a3 3 0 010 6h25a3 3 0 003-3zm-34 8h12v4H26zM15 5v37h34V13h-8V5zm7 27a2.993 2.993 0 011 5.816V39h-2v-1.184A3 3 0 0119 35h2a1 1 0 101-1 2.993 2.993 0 01-1-5.816V27h2v1.184A3 3 0 0125 31h-2a1 1 0 10-1 1zm3-21h4V7h6v4h4v6h-4v4h-6v-4h-4zm20 27H29v-2h16zm0-4H29v-2h16zm0-6v2H29v-2z" fill="#fff" data-original="#000000"/><path xmlns="http://www.w3.org/2000/svg" d="M43 11h4.586L43 6.414zm17 3a3 3 0 00-3-3h-6.586l.586.586V42h9zM46 60v-1a1 1 0 00-1-1H19a1 1 0 00-1 1v1h-4v2h36v-2z" fill="#fff" data-original="#000000"/></svg>