<svg xmlns="http://www.w3.org/2000/svg" width="512" height="512" viewBox="0 0 510.974 510.974"><g xmlns="http://www.w3.org/2000/svg" fill="#00a7ff"><path d="M492.361 251.124a22.904 22.904 0 00-17.292 3.487c-4.232 2.844-7.338 6.913-8.953 11.659l-26.259-11.467c.054-1.797.081-3.568.081-5.293 0-15.439-1.933-30.769-5.747-45.62l11.779-7.99c7.466 6.539 18.317 8.494 27.817 4.367 12.783-5.555 18.906-20.348 13.938-33.678l-5.545-14.881c-5.027-13.493-19.488-20.602-32.919-16.194-6.797 2.232-12.267 6.994-15.401 13.408a26.146 26.146 0 00-2.684 11.493l-13.363 1.866a187.213 187.213 0 00-5.967-10.145 7.501 7.501 0 00-12.69 7.999 168.222 168.222 0 016.866 11.912c2.043 3.916 6.351 6.137 10.711 5.529l24.098-3.364a7.5 7.5 0 006.023-9.96 11.17 11.17 0 01.482-8.743 11.162 11.162 0 016.604-5.743c5.658-1.856 12.017 1.365 14.184 7.181l5.545 14.881c2.146 5.759-.483 12.346-5.861 14.684-5.148 2.236-11.21.319-14.107-4.458a7.499 7.499 0 00-10.622-2.317l-19.987 13.557a10.447 10.447 0 00-4.2 11.439 168.219 168.219 0 016.046 44.778c0 2.488-.063 5.088-.185 7.729-.199 4.302 2.314 8.348 6.252 10.067l37.472 16.364a7.497 7.497 0 0010.361-5.428l1.188-6.05a7.997 7.997 0 013.409-5.13 7.986 7.986 0 016.037-1.217c4.355.854 7.203 5.092 6.349 9.446l-6.145 31.317a7.978 7.978 0 01-3.569 5.235 8.009 8.009 0 01-6.267 1.027c-4.1-1.007-6.735-5.398-5.874-9.79l.164-.837a7.501 7.501 0 00-1.68-6.339 7.493 7.493 0 00-6.022-2.596l-40.534 1.849c-4.291.195-8.086 3.073-9.442 7.165a167.314 167.314 0 01-14.815 32.559 10.466 10.466 0 00.987 12.058l17.932 21.303a7.502 7.502 0 0010.907.604 11.152 11.152 0 0114.53-.783c2.382 1.822 3.91 4.462 4.306 7.434s-.391 5.92-2.212 8.301l-5.196 6.791c-3.733 4.877-10.705 6.131-15.542 2.798-4.111-2.833-5.869-8.113-4.275-12.84a7.498 7.498 0 00-4.091-9.263l-25.832-11.346a10.446 10.446 0 00-11.935 2.541 168.398 168.398 0 01-39.534 32.029c-3.717 2.17-5.746 6.476-5.052 10.713l6.613 40.324a7.5 7.5 0 0010.188 5.75l5.722-2.29a7.979 7.979 0 016.335.153 7.995 7.995 0 014.267 4.705c1.382 3.989-.875 8.588-5.031 10.25l-29.222 11.69a7.979 7.979 0 01-6.335-.152 7.999 7.999 0 01-4.267-4.704c-1.382-3.989.874-8.588 5.027-10.25l.791-.316a7.5 7.5 0 003.319-11.32l-23.575-33.032c-2.494-3.497-6.973-5.12-11.137-4.04a168.41 168.41 0 01-42.234 5.37 169.002 169.002 0 01-33.688-3.394c-4.217-.859-8.599.994-10.912 4.615l-23.597 37.009a7.495 7.495 0 00-.778 6.44 7.496 7.496 0 004.534 4.639l.835.305a11.338 11.338 0 016.439 5.907 11.346 11.346 0 01.376 8.73 7.48 7.48 0 00-.454 2.569c0 2.837-.837 4.986-2.357 6.049-1.519 1.064-3.823 1.116-6.49.142l-28.988-10.57c-5.805-2.116-8.895-8.589-6.89-14.429.957-2.784 3.017-5.048 5.801-6.376 2.941-1.403 6.36-1.577 9.377-.477l.664.242a7.497 7.497 0 0010.023-6.22l4.804-43.373c.473-4.268-1.779-8.461-5.603-10.435-17.535-9.056-33.224-21.034-46.627-35.597-2.95-3.208-7.634-4.255-11.656-2.604l-35.375 14.507a7.498 7.498 0 00-3.77 10.473c2.245 4.2.93 9.345-3.058 11.967-4.111 2.705-9.867 1.44-12.827-2.82l-9.061-13.043c-2.906-4.183-2.214-9.798 1.575-12.784a9.101 9.101 0 016.84-1.905 9.112 9.112 0 016.152 3.566 7.501 7.501 0 0011.599.447l24.916-28.162c2.924-3.305 3.448-8.125 1.303-11.999a167.917 167.917 0 01-7.405-15.124 7.501 7.501 0 00-13.784 5.92 184.674 184.674 0 006.538 13.652L77.701 355.4a24.119 24.119 0 00-9.557-3.352c-6.487-.833-12.889.943-18.04 5.001-10.009 7.888-12.033 22.438-4.608 33.124l9.061 13.042c7.561 10.884 22.537 13.931 33.388 6.795 8.115-5.337 12.026-14.646 10.661-23.714l26.08-10.696a182.807 182.807 0 0045.854 35l-3.568 32.217a27.3 27.3 0 00-12.508 2.637c-6.448 3.076-11.253 8.417-13.529 15.042-4.642 13.517 2.508 28.498 15.938 33.395l28.988 10.57c2.909 1.061 5.832 1.585 8.647 1.585 4.24 0 8.237-1.19 11.582-3.53 5.248-3.673 8.386-9.827 8.726-17.024 1.945-6.272 1.499-12.951-1.293-18.946a26.294 26.294 0 00-7.662-9.666l17.611-27.622c25.29 4.705 51.661 4.013 76.583-1.993l17.114 23.979c-6.736 6.096-9.534 15.689-6.443 24.613 2.088 6.023 6.424 10.795 12.21 13.438a23.16 23.16 0 0018.137.435l29.223-11.69c11.676-4.671 17.665-17.448 13.633-29.087-2.087-6.023-6.423-10.796-12.209-13.439a23.166 23.166 0 00-15.149-1.397l-4.635-28.259a183.313 183.313 0 0038.15-30.882l17.452 7.665c-.488 8.965 3.669 17.84 11.3 23.099 11.51 7.931 27.308 5.279 35.966-6.034l5.196-6.791c4.257-5.563 6.093-12.451 5.169-19.395s-4.496-13.113-10.06-17.37c-8.117-6.211-18.713-7.047-27.438-2.748l-11.508-13.672a182.492 182.492 0 0013.52-29.73l29.417-1.342c1.459 8.967 7.993 16.527 17.165 18.779 6.19 1.521 12.553.471 17.914-2.951a23.155 23.155 0 0010.217-14.991l6.145-31.317c2.446-12.471-5.709-24.607-18.18-27.054zM48.322 271.383l28.112 6.493a183.607 183.607 0 002.259 11.837 7.501 7.501 0 008.961 5.674 7.5 7.5 0 005.674-8.961 167.643 167.643 0 01-2.492-13.705c-.591-4.273-3.805-7.795-7.996-8.762l-39.815-9.195a7.5 7.5 0 00-9.187 7.241l-.041 4.661c-.047 5.218-4.33 9.464-9.549 9.464a9.182 9.182 0 01-6.567-2.737 9.182 9.182 0 01-2.679-6.591l.26-28.924c.023-2.652 1.15-5.247 3.091-7.119 1.824-1.76 4.129-2.704 6.564-2.632 5.066.134 9.166 4.37 9.138 9.443a7.498 7.498 0 009.212 7.343l39.535-9.27c4.188-.982 7.388-4.513 7.965-8.787 2.917-21.633 9.936-42.198 20.861-61.126 2.204-3.822 1.77-8.644-1.085-12L91.69 131.588a7.504 7.504 0 00-11.693.337l-1.634 2.16a7.268 7.268 0 01-5.013 2.86 7.29 7.29 0 01-5.539-1.662c-2.954-2.461-3.352-7.115-.887-10.374l12.558-16.604c2.438-3.223 7.044-3.863 10.267-1.424 3.018 2.282 3.791 6.569 1.761 9.76a7.5 7.5 0 003.351 10.908l26.363 11.402a10.46 10.46 0 0011.872-2.557 168.28 168.28 0 0141.354-33.003c3.74-2.122 5.825-6.398 5.189-10.644l-6.073-40.408a7.501 7.501 0 00-10.11-5.886l-5.753 2.213a7.985 7.985 0 01-6.331-.237 7.994 7.994 0 01-4.203-4.761c-1.329-4.008.988-8.575 5.167-10.182l29.376-11.299a7.977 7.977 0 016.331.237 7.995 7.995 0 014.204 4.761c1.328 4.008-.989 8.575-5.168 10.183l-.794.306a7.499 7.499 0 00-3.468 11.274l23.126 33.338c2.446 3.526 6.897 5.209 11.076 4.186 13.034-3.192 26.516-4.811 40.088-4.811h.004c4.425 0 8.392-2.789 9.871-6.936l7.657-21.426a7.495 7.495 0 00-.35-5.868 7.497 7.497 0 00-4.474-3.814 12.15 12.15 0 01-8.435-13.02c.367-3.086 1.988-5.895 4.564-7.91 2.705-2.116 6.166-3.089 9.501-2.668l10.516 1.324c6.816.858 11.781 6.887 11.068 13.439-.551 5.058-4.092 9.16-9.021 10.45a7.5 7.5 0 00-5.552 8.109l2.661 23.218a10.455 10.455 0 008.15 9.014 166.605 166.605 0 0147.708 18.535c3.733 2.16 8.483 1.788 11.822-.922l31.729-25.755a7.5 7.5 0 00-.063-11.697l-4.827-3.833a7.98 7.98 0 01-3.012-5.576 7.996 7.996 0 011.968-6.038c2.777-3.181 7.888-3.503 11.396-.72l24.65 19.571a7.98 7.98 0 013.012 5.575 8 8 0 01-1.968 6.039c-2.778 3.179-7.892 3.501-11.394.721l-.665-.528a7.498 7.498 0 00-11.476 2.735l-16.995 36.892c-1.797 3.902-.982 8.594 2.025 11.675a167.09 167.09 0 013.372 3.583 7.501 7.501 0 0011.036-10.16 235.58 235.58 0 00-1.513-1.634l12.343-26.794c8.635 2.824 18.351.493 24.564-6.62 4.194-4.801 6.186-10.934 5.608-17.269a23.15 23.15 0 00-8.623-15.961l-24.65-19.57c-9.849-7.819-23.913-6.68-32.019 2.599-4.194 4.801-6.186 10.934-5.608 17.269a23.165 23.165 0 006.305 13.845L345.766 89.58a181.553 181.553 0 00-46.108-17.931l-1.648-14.387c7.623-4.216 12.97-11.98 13.937-20.855 1.593-14.638-9.222-28.071-24.107-29.946l-10.516-1.324c-7.266-.914-14.783 1.176-20.614 5.735-5.748 4.495-9.378 10.872-10.219 17.957-1.224 10.3 3.528 20.142 11.781 25.708l-4.343 12.151a183.691 183.691 0 00-37.428 4.496l-16.784-24.196c6.815-6.004 9.742-15.559 6.771-24.523-2.007-6.051-6.279-10.881-12.029-13.601a23.154 23.154 0 00-18.129-.677l-29.375 11.298c-11.739 4.514-17.898 17.21-14.021 28.903 2.006 6.051 6.277 10.881 12.028 13.601a23.163 23.163 0 0015.129 1.599l4.256 28.318a183.164 183.164 0 00-40.119 31.999l-16.933-7.323c1.376-8.017-1.687-16.516-8.495-21.666-4.757-3.598-10.628-5.131-16.538-4.308a22.177 22.177 0 00-14.74 8.648L54.963 115.86c-7.349 9.714-5.922 23.308 3.248 30.947 4.745 3.953 10.728 5.744 16.852 5.04a22.412 22.412 0 0010.631-4.165l11.361 13.345C86.557 179.964 79.6 200.364 76.346 221.75l-29.021 6.805c-3.523-8.792-12.047-15.16-22.011-15.423-6.487-.163-12.634 2.256-17.378 6.833C3.12 224.613.322 231.092.261 237.742l-.26 28.926c-.058 6.517 2.437 12.656 7.024 17.285s10.704 7.178 17.222 7.178c11.85.001 21.825-8.514 24.075-19.748z" data-original="#000000"/><path d="M219.962 230.442a7.5 7.5 0 10-7.026-13.253c-17.923 9.5-38.352 6.989-48.569-5.975-5.733-7.272-7.705-16.909-5.553-27.134 2.256-10.722 8.708-20.733 18.167-28.188 9.457-7.456 20.699-11.386 31.65-11.082 10.445.295 19.354 4.463 25.088 11.736 8.608 10.921 8.499 27.222-.279 41.529a7.5 7.5 0 002.471 10.315 7.5 7.5 0 0010.314-2.47c12.102-19.724 11.816-42.749-.727-58.66-8.533-10.826-21.476-17.021-36.443-17.443-14.464-.42-29.148 4.668-41.36 14.295-12.214 9.627-20.58 22.725-23.56 36.879-3.084 14.652-.082 28.684 8.451 39.509 8.985 11.398 23.054 17.394 38.19 17.393 9.643 0 19.718-2.432 29.186-7.451zm145.528-67.261c0-15.549-14.47-28.199-32.256-28.199s-32.257 12.65-32.257 28.199 14.471 28.199 32.257 28.199 32.256-12.65 32.256-28.199zm-49.512 0c0-7.278 7.741-13.199 17.257-13.199 9.515 0 17.256 5.921 17.256 13.199s-7.741 13.199-17.256 13.199c-9.516 0-17.257-5.921-17.257-13.199zm-37.523 128.901c0-19.056-15.503-34.559-34.559-34.559-19.057 0-34.56 15.503-34.56 34.559s15.503 34.559 34.56 34.559c19.056 0 34.559-15.503 34.559-34.559zm-54.118 0c0-10.785 8.774-19.559 19.56-19.559 10.784 0 19.559 8.774 19.559 19.559s-8.774 19.559-19.559 19.559c-10.786 0-19.56-8.774-19.56-19.559zm151.892-14.097c0-14.819-12.056-26.875-26.875-26.875-14.818 0-26.874 12.056-26.874 26.875s12.056 26.875 26.874 26.875c14.819-.001 26.875-12.056 26.875-26.875zm-38.75 0c0-6.548 5.327-11.875 11.874-11.875 6.548 0 11.875 5.327 11.875 11.875s-5.327 11.875-11.875 11.875c-6.546-.001-11.874-5.327-11.874-11.875zm-59.677 120.884c14.521 0 26.336-11.814 26.336-26.336 0-14.521-11.814-26.336-26.336-26.336s-26.337 11.814-26.337 26.336 11.814 26.336 26.337 26.336zm0-37.672c6.251 0 11.336 5.085 11.336 11.336s-5.085 11.336-11.336 11.336-11.337-5.085-11.337-11.336 5.086-11.336 11.337-11.336zm-117.862-6.599c14.955 0 27.122-12.167 27.122-27.122s-12.167-27.122-27.122-27.122-27.122 12.167-27.122 27.122 12.167 27.122 27.122 27.122zm0-39.244c6.685 0 12.122 5.438 12.122 12.122s-5.438 12.122-12.122 12.122-12.122-5.438-12.122-12.122 5.438-12.122 12.122-12.122zm152.723-81.741a7.5 7.5 0 00-7.5-7.5h-6.63c-4.143 0-7.5 3.358-7.5 7.5s3.357 7.5 7.5 7.5h6.63a7.5 7.5 0 007.5-7.5zm-102.638 138.6h6.812c4.143 0 7.5-3.358 7.5-7.5s-3.357-7.5-7.5-7.5h-6.812a7.5 7.5 0 000 15zM146.88 262.991c4.143 0 7.5-3.358 7.5-7.5s-3.357-7.5-7.5-7.5h-6.562c-4.143 0-7.5 3.358-7.5 7.5s3.357 7.5 7.5 7.5zm133.207-131.217c4.143 0 7.5-3.358 7.5-7.5s-3.357-7.5-7.5-7.5h-9.132c-4.143 0-7.5 3.358-7.5 7.5s3.357 7.5 7.5 7.5zm49.892 201.023c-4.143 0-7.5 3.358-7.5 7.5s3.357 7.5 7.5 7.5h10.084c4.143 0 7.5-3.358 7.5-7.5s-3.357-7.5-7.5-7.5z" data-original="#000000"/></g></svg>