<svg xmlns="http://www.w3.org/2000/svg" width="512" height="512" viewBox="0 0 64 64"><g fill="#fff"><path xmlns="http://www.w3.org/2000/svg" d="M33 43h23v12H33zm25 17h2V39a1 1 0 00-2 0zM8 43h23v12H8zM4 60h2V29a1 1 0 00-2 0zm8-21a2 2 0 010-4h12a2 2 0 010 4zM42 4a12 12 0 1012 12A12.013 12.013 0 0042 4zm7 15h-4v4a2 2 0 01-2 2h-2a2 2 0 01-2-2v-4h-4a2 2 0 01-2-2v-2a2 2 0 012-2h4V9a2 2 0 012-2h2a2 2 0 012 2v4h4a2 2 0 012 2v2a2 2 0 01-2 2z" data-original="#000000"/><path xmlns="http://www.w3.org/2000/svg" d="M43 13V9h-2v4a2 2 0 01-2 2h-4v2h4a2 2 0 012 2v4h2v-4a2 2 0 012-2h4v-2h-4a2 2 0 01-2-2z" data-original="#000000"/></g></svg>