<svg xmlns="http://www.w3.org/2000/svg" width="512" height="512" viewBox="0 0 64 64"><g xmlns="http://www.w3.org/2000/svg" id="Call_Hospital" data-name="Call Hospital" fill="#fff"><circle cx="19" cy="56" r="1" data-original="#000000"/><path d="M34 41h-6.333a1.007 1.007 0 00-.6.2L18 48V24a9.01 9.01 0 019-9h7V7a3 3 0 00-3-3h-2v1a3 3 0 01-3 3H12a3 3 0 01-3-3V4H7a3 3 0 00-3 3v50a3 3 0 003 3h24a3 3 0 003-3zM19 59a3 3 0 113-3 3 3 0 01-3 3zm13-7H6v-2h26z" data-original="#000000"/><path d="M12 6h14a1 1 0 001-1V4H11v1a1 1 0 001 1zm30 38h4v2h-4zm6 0h14v2H48zm-6 4h4v2h-4zm6 0h14v2H48zm-6 4h4v2h-4zm6 0h14v2H48zm-6 4h4v2h-4zm6 0h14v2H48zM36 25v-4h-2v4a2 2 0 01-2 2h-4v2h4a2 2 0 012 2v4h2v-4a2 2 0 012-2h4v-2h-4a2 2 0 01-2-2z" data-original="#000000"/><path d="M43 17H27a7.008 7.008 0 00-7 7v20l5.867-4.4a3.014 3.014 0 011.8-.6H43a7.008 7.008 0 007-7v-8a7.008 7.008 0 00-7-7zm1 12a2 2 0 01-2 2h-4v4a2 2 0 01-2 2h-2a2 2 0 01-2-2v-4h-4a2 2 0 01-2-2v-2a2 2 0 012-2h4v-4a2 2 0 012-2h2a2 2 0 012 2v4h4a2 2 0 012 2z" data-original="#000000"/></g></svg>