<?xml version="1.0"?>
<svg xmlns="http://www.w3.org/2000/svg" xmlns:xlink="http://www.w3.org/1999/xlink" xmlns:svgjs="http://svgjs.com/svgjs" version="1.1" width="512" height="512" x="0" y="0" viewBox="0 0 64 64" style="enable-background:new 0 0 512 512" xml:space="preserve" class=""><g><path xmlns="http://www.w3.org/2000/svg" d="m33 43h23v12h-23z" fill="#ffffff" data-original="#000000" style=""/><path xmlns="http://www.w3.org/2000/svg" d="m58 60h2v-21a1 1 0 0 0 -2 0z" fill="#ffffff" data-original="#000000" style=""/><path xmlns="http://www.w3.org/2000/svg" d="m8 43h23v12h-23z" fill="#ffffff" data-original="#000000" style=""/><path xmlns="http://www.w3.org/2000/svg" d="m4 60h2v-31a1 1 0 0 0 -2 0z" fill="#ffffff" data-original="#000000" style=""/><path xmlns="http://www.w3.org/2000/svg" d="m12 39a2 2 0 0 1 0-4h12a2 2 0 0 1 0 4z" fill="#ffffff" data-original="#000000" style=""/><path xmlns="http://www.w3.org/2000/svg" d="m42 4a12 12 0 1 0 12 12 12.013 12.013 0 0 0 -12-12zm7 15h-4v4a2 2 0 0 1 -2 2h-2a2 2 0 0 1 -2-2v-4h-4a2 2 0 0 1 -2-2v-2a2 2 0 0 1 2-2h4v-4a2 2 0 0 1 2-2h2a2 2 0 0 1 2 2v4h4a2 2 0 0 1 2 2v2a2 2 0 0 1 -2 2z" fill="#ffffff" data-original="#000000" style=""/><path xmlns="http://www.w3.org/2000/svg" d="m43 13v-4h-2v4a2 2 0 0 1 -2 2h-4v2h4a2 2 0 0 1 2 2v4h2v-4a2 2 0 0 1 2-2h4v-2h-4a2 2 0 0 1 -2-2z" fill="#ffffff" data-original="#000000" style=""/></g></svg>
