<?xml version="1.0"?>
<svg xmlns="http://www.w3.org/2000/svg" xmlns:xlink="http://www.w3.org/1999/xlink" xmlns:svgjs="http://svgjs.com/svgjs" version="1.1" width="512" height="512" x="0" y="0" viewBox="0 0 64 64" style="enable-background:new 0 0 512 512" xml:space="preserve" class=""><g><path xmlns="http://www.w3.org/2000/svg" d="m31 19h2v-4h4v-2h-4v-4h-2v4h-4v2h4z" fill="#ffffff" data-original="#000000" style="" class=""/><path xmlns="http://www.w3.org/2000/svg" d="m4 42h9v-31h-6c-3 0-3 1.505-3 2z" fill="#ffffff" data-original="#000000" style="" class=""/><circle xmlns="http://www.w3.org/2000/svg" cx="32" cy="47" r="1" fill="#ffffff" data-original="#000000" style="" class=""/><path xmlns="http://www.w3.org/2000/svg" d="m29 47a3 3 0 0 1 3-3h-28v3a3 3 0 0 0 3 3h25a3 3 0 0 1 -3-3z" fill="#ffffff" data-original="#000000" style="" class=""/><path xmlns="http://www.w3.org/2000/svg" d="m60 44h-28a3 3 0 0 1 0 6h25a3 3 0 0 0 3-3z" fill="#ffffff" data-original="#000000" style="" class=""/><path xmlns="http://www.w3.org/2000/svg" d="m26 52h12v4h-12z" fill="#ffffff" data-original="#000000" style="" class=""/><path xmlns="http://www.w3.org/2000/svg" d="m15 5v37h34v-29h-8v-8zm7 27a2.993 2.993 0 0 1 1 5.816v1.184h-2v-1.184a3 3 0 0 1 -2-2.816h2a1 1 0 1 0 1-1 2.993 2.993 0 0 1 -1-5.816v-1.184h2v1.184a3 3 0 0 1 2 2.816h-2a1 1 0 1 0 -1 1zm3-21h4v-4h6v4h4v6h-4v4h-6v-4h-4zm20 27h-16v-2h16zm0-4h-16v-2h16zm0-6v2h-16v-2z" fill="#ffffff" data-original="#000000" style="" class=""/><path xmlns="http://www.w3.org/2000/svg" d="m43 11h4.586l-4.586-4.586z" fill="#ffffff" data-original="#000000" style="" class=""/><path xmlns="http://www.w3.org/2000/svg" d="m60 14a3 3 0 0 0 -3-3h-6.586l.586.586v30.414h9z" fill="#ffffff" data-original="#000000" style="" class=""/><path xmlns="http://www.w3.org/2000/svg" d="m46 60v-1a1 1 0 0 0 -1-1h-26a1 1 0 0 0 -1 1v1h-4v2h36v-2z" fill="#ffffff" data-original="#000000" style="" class=""/></g></svg>
