<?xml version="1.0"?>
<svg xmlns="http://www.w3.org/2000/svg" xmlns:xlink="http://www.w3.org/1999/xlink" xmlns:svgjs="http://svgjs.com/svgjs" version="1.1" width="512" height="512" x="0" y="0" viewBox="0 0 64 64" style="enable-background:new 0 0 512 512" xml:space="preserve" class=""><g><g xmlns="http://www.w3.org/2000/svg" id="Call_Hospital" data-name="Call Hospital"><circle cx="19" cy="56" r="1" fill="#ffffff" data-original="#000000" style="" class=""/><path d="m34 41h-6.333a1.007 1.007 0 0 0 -.6.2l-9.067 6.8v-24a9.01 9.01 0 0 1 9-9h7v-8a3 3 0 0 0 -3-3h-2v1a3 3 0 0 1 -3 3h-14a3 3 0 0 1 -3-3v-1h-2a3 3 0 0 0 -3 3v50a3 3 0 0 0 3 3h24a3 3 0 0 0 3-3zm-15 18a3 3 0 1 1 3-3 3 3 0 0 1 -3 3zm13-7h-26v-2h26z" fill="#ffffff" data-original="#000000" style="" class=""/><path d="m12 6h14a1 1 0 0 0 1-1v-1h-16v1a1 1 0 0 0 1 1z" fill="#ffffff" data-original="#000000" style="" class=""/><path d="m42 44h4v2h-4z" fill="#ffffff" data-original="#000000" style="" class=""/><path d="m48 44h14v2h-14z" fill="#ffffff" data-original="#000000" style="" class=""/><path d="m42 48h4v2h-4z" fill="#ffffff" data-original="#000000" style="" class=""/><path d="m48 48h14v2h-14z" fill="#ffffff" data-original="#000000" style="" class=""/><path d="m42 52h4v2h-4z" fill="#ffffff" data-original="#000000" style="" class=""/><path d="m48 52h14v2h-14z" fill="#ffffff" data-original="#000000" style="" class=""/><path d="m42 56h4v2h-4z" fill="#ffffff" data-original="#000000" style="" class=""/><path d="m48 56h14v2h-14z" fill="#ffffff" data-original="#000000" style="" class=""/><path d="m36 25v-4h-2v4a2 2 0 0 1 -2 2h-4v2h4a2 2 0 0 1 2 2v4h2v-4a2 2 0 0 1 2-2h4v-2h-4a2 2 0 0 1 -2-2z" fill="#ffffff" data-original="#000000" style="" class=""/><path d="m43 17h-16a7.008 7.008 0 0 0 -7 7v20l5.867-4.4a3.014 3.014 0 0 1 1.8-.6h15.333a7.008 7.008 0 0 0 7-7v-8a7.008 7.008 0 0 0 -7-7zm1 12a2 2 0 0 1 -2 2h-4v4a2 2 0 0 1 -2 2h-2a2 2 0 0 1 -2-2v-4h-4a2 2 0 0 1 -2-2v-2a2 2 0 0 1 2-2h4v-4a2 2 0 0 1 2-2h2a2 2 0 0 1 2 2v4h4a2 2 0 0 1 2 2z" fill="#ffffff" data-original="#000000" style="" class=""/></g></g></svg>
