<?xml version="1.0"?>
<svg xmlns="http://www.w3.org/2000/svg" xmlns:xlink="http://www.w3.org/1999/xlink" xmlns:svgjs="http://svgjs.com/svgjs" version="1.1" width="512" height="512" x="0" y="0" viewBox="0 0 64 64" style="enable-background:new 0 0 512 512" xml:space="preserve" class=""><g><path xmlns="http://www.w3.org/2000/svg" d="m17.614 33.858-3.334 1.319a2.031 2.031 0 0 1 -1.568-.037 1.95 1.95 0 0 1 -1.045-1.121 22.061 22.061 0 0 1 .02-15.093 2.012 2.012 0 0 1 2.505-1.195l4.325 1.431 5.439-12.894a9.228 9.228 0 0 0 -5.516-1.629 8.575 8.575 0 0 0 -5.618 1.8c-.1.087-.443.43-.518.517a27.843 27.843 0 0 0 -.041 39.044c.116.131.459.474.548.551a5.823 5.823 0 0 0 3.152 1.313l.023 2.612-2.541 1.694a1 1 0 0 0 .312 1.8l1.962.49-2.319 1.74a1 1 0 0 0 .357 1.77l1.807.452-1.119.746a1 1 0 0 0 -.445.832v1a1 1 0 0 0 2 0v-.465l2.555-1.7a1 1 0 0 0 -.312-1.8l-1.962-.49 2.319-1.745a1 1 0 0 0 -.357-1.77l-1.807-.452 1.119-.746a1 1 0 0 0 .445-.857l-.036-3.065a11.186 11.186 0 0 0 5.943-2.129z" fill="#ffffff" data-original="#000000" style="" class=""/><path xmlns="http://www.w3.org/2000/svg" d="m46 22v-5h-6v5a2 2 0 0 1 -2 2h-5v6h5a2 2 0 0 1 2 2v5h6v-5a2 2 0 0 1 2-2h5v-6h-5a2 2 0 0 1 -2-2z" fill="#ffffff" data-original="#000000" style="" class=""/><path xmlns="http://www.w3.org/2000/svg" d="m43 10a17 17 0 1 0 17 17 17.019 17.019 0 0 0 -17-17zm12 20a2 2 0 0 1 -2 2h-5v5a2 2 0 0 1 -2 2h-6a2 2 0 0 1 -2-2v-5h-5a2 2 0 0 1 -2-2v-6a2 2 0 0 1 2-2h5v-5a2 2 0 0 1 2-2h6a2 2 0 0 1 2 2v5h5a2 2 0 0 1 2 2z" fill="#ffffff" data-original="#000000" style="" class=""/></g></svg>
